PathFileType	4	(X/Y/Z)	RBDS025\RBDS025runT35.trc
DataRate	CameraRate	NumFrames	NumMarkers	Units	OrigDataRate	OrigDataStartFrame	OrigNumFrames
150.000000	150.000000	4	33	mm	150.000000	562	4500
Frame#	Time	L.ASIS			L.Heel.Bottom			L.Heel.Lateral			L.Heel.Top			L.Iliac.Crest			L.MT1			L.MT5			L.PSIS			L.Shank.Bottom.Lateral			L.Shank.Bottom.Medial			L.Shank.Top.Lateral			L.Shank.Top.Medial			L.Thigh.Bottom.Lateral			L.Thigh.Bottom.Medial			L.Thigh.Top.Lateral			L.Thigh.Top.Medial			R.ASIS			R.ASY			R.Heel.Bottom			R.Heel.Lateral			R.Heel.Top			R.Iliac.Crest			R.MT1			R.MT5			R.PSIS			R.Shank.Bottom.Lateral			R.Shank.Bottom.Medial			R.Shank.Top.Lateral			R.Shank.Top.Medial			R.Thigh.Bottom.Lateral			R.Thigh.Bottom.Medial			R.Thigh.Top.Lateral			R.Thigh.Top.Medial			
		X1	Y1	Z1	X2	Y2	Z2	X3	Y3	Z3	X4	Y4	Z4	X5	Y5	Z5	X6	Y6	Z6	X7	Y7	Z7	X8	Y8	Z8	X9	Y9	Z9	X10	Y10	Z10	X11	Y11	Z11	X12	Y12	Z12	X13	Y13	Z13	X14	Y14	Z14	X15	Y15	Z15	X16	Y16	Z16	X17	Y17	Z17	X18	Y18	Z18	X19	Y19	Z19	X20	Y20	Z20	X21	Y21	Z21	X22	Y22	Z22	X23	Y23	Z23	X24	Y24	Z24	X25	Y25	Z25	X26	Y26	Z26	X27	Y27	Z27	X28	Y28	Z28	X29	Y29	Z29	X30	Y30	Z30	X31	Y31	Z31	X32	Y32	Z32	X33	Y33	Z33	

563	3.746666666666667	2206.10257840067	874.9914041281851	817.6236783492928	1777.75501115393	493.7605877720745	814.31274185503	1790.122671896496	461.7328843048735	770.7597538249815	1816.674147181675	472.0952194752397	815.8124656168808	2135.874573217241	948.9954597158462	764.5403467909669	1731.642899188537	289.1307995634151	847.1769436380393	1737.433016312553	318.4921021690412	739.2112234759663	2046.500498393445	944.0191937774559	862.6168551330991	1907.09789921365	404.7652310630903	756.187919721556	1906.48700166151	452.3951138527095	785.172092003783	1986.343310924696	412.8545110749902	745.1883019470613	1986.487284686012	459.7660206031642	771.926385458953	2189.689033503932	538.3488442840958	734.6262962371784	2127.159784261996	516.6386525012811	765.021327692972	2152.615732471939	640.6004249599891	732.5946960577794	2093.917018648886	621.0037201780596	764.9247160389502	2208.697280366836	892.8473487163953	1018.608960222276	2083.995498315239	76.78673992383766	925.6530106649448	1899.858371568017	42.98498739856394	887.5360811392977	1920.8103701493	65.10991317597666	931.201310929793	1914.0632516079	85.83090747735196	886.1154620030937	2149.20342496237	951.6591572624943	1064.070869900537	2114.866646140519	41.82716297430149	888.6392130328196	2063.691766089862	38.25371340596863	991.6130012443068	2047.83620960345	951.4566609607516	965.5981635142189	2031.041400892924	174.1132739700174	962.8832997293941	1994.454237757318	201.8886558309761	939.5399614914852	2067.398017318349	246.2313178099012	988.0477492516885	2029.002076680177	271.9087265578261	961.0631396662668	2172.492254116064	523.7872319948103	1040.330549345933	2111.019464675953	513.9217105710143	1004.914195657883	2139.882094416861	626.1691443661773	1067.983842757198	2079.796285929116	615.0666645583066	1036.50693788749	
564	3.753333333333333	2205.25127758685	878.0657764985117	817.8389092117336	1787.888679439493	480.7728891320499	814.3879287967779	1802.69808453145	449.4732975262257	771.1709478603943	1828.110894698055	461.689591260701	816.4065302462191	2134.16067076259	952.1502012843764	764.8798166287884	1755.101035206101	274.0648037294071	848.3883419628266	1759.80019811692	303.0950263539265	740.0952051752527	2045.548335460526	947.0136614454069	862.8901329818724	1923.241542765901	398.3750901084047	757.188336157955	1920.50691306821	446.0956423871314	785.8230629370945	2002.044249741692	409.9538839342148	746.0657142686664	2000.067299733901	456.9154614298909	772.5288412278169	2201.475874335439	545.0469048756382	734.5938758736273	2139.401928301409	520.6113400356502	763.9732845614467	2160.375808321008	645.7400477004238	732.5468302982621	2101.751078637124	623.4921702645983	763.3679989316103	2207.571801523038	894.1956857173139	1018.944498718804	2061.288638574829	76.74258211333314	925.7982978005966	1876.624684908428	46.66947373254098	887.6430215769823	1897.96174381747	68.21092598458266	931.4142573864509	1891.572641043218	89.29955437334944	886.4465878373134	2150.082738641947	954.1470777172393	1063.777521458544	2091.129530264859	41.41569167988421	888.4108570678642	2039.991512397142	38.17801849675261	991.4094601985166	2047.230593585679	954.0920453633249	965.8486898247744	2009.92443731823	176.0979310124929	962.6872699370232	1973.807616694721	204.4383668982127	939.3980179890955	2047.49597709123	247.6257185475365	987.7229871105069	2009.541072343837	273.9079231777243	960.7848277829645	2159.853314145283	523.668613427184	1039.23123220544	2097.843891700214	516.1172672327698	1004.106811338229	2131.129642339466	627.124507855629	1067.108097905892	2070.556773467112	618.3654889593494	1035.708405404947	
565	3.76	2204.780169931088	881.5874531507445	818.2314118694221	1797.796179586016	466.1746365502046	814.9469701540971	1815.121223271932	435.9630053278374	771.9811981194058	1839.251944472443	450.0129266413624	817.3211746333877	2133.262298926823	955.8779690051638	765.1634283549771	1779.773614753021	258.0623022657284	849.7167855237248	1783.051132194537	286.9444472808639	741.1557500969344	2044.8760012706	950.507257220508	862.8857048546193	1939.251662839041	391.5373222620089	758.3999301648156	1934.106588776385	439.2528431580329	786.6302592073495	2017.380554512618	407.0259274887285	747.1282982977754	2012.996336383939	453.9553240805573	773.2498311264555	2212.756206956728	552.668265922824	734.685806355504	2151.289495647152	525.6486368436377	763.2002196266577	2167.801168032596	651.6847619397897	732.438460186405	2109.396978123908	626.8947152779679	761.8503436350926	2206.500919723941	895.9660833758333	1019.398602135647	2038.76973377722	76.73824518227259	926.1698315747992	1853.615347374513	51.21609899414519	887.8756425366943	1875.366360443033	71.93988145983839	931.8284470326219	1869.428562744519	93.5680936771334	887.0564254384145	2150.860859295052	957.0060683860357	1063.361523212545	2067.383546262615	41.02602095182696	888.1985251254454	2016.325224690405	38.14483544607514	991.3111560699786	2046.763858986491	957.0587852893715	965.8279021814335	1988.984114947225	178.7835889787543	962.8866499402371	1953.340825595721	207.6101546514111	939.5452411053657	2027.661781568426	249.7823363120511	987.7536541038286	1990.113629758599	276.5934451219655	960.8242820309215	2147.13862739162	524.4072487252199	1038.388516027904	2084.755843371133	519.1853016702787	1003.479385316261	2122.347822902071	628.8215577279429	1066.374622380165	2061.430500999046	622.420987991677	1034.97306230577	
566	3.766666666666667	2204.681582019573	885.5393672112546	818.7516919717922	1807.769304477778	449.9783685594426	816.0162411049707	1827.616208276616	421.218043412819	773.2077794041021	1850.323499653308	437.0542178296416	818.5779728440851	2133.124491434994	960.1790969059804	765.3572588697342	1805.72001049808	241.3914317236401	851.133508044355	1807.251254170119	270.2530805498877	742.3759824751066	2044.502721318099	954.4789338864459	862.6414339625928	1955.192368207247	384.2432151460603	759.8266236898401	1947.385467949847	431.819142473994	787.6116163054268	2032.356996184353	404.0031185463731	748.3736666048256	2025.32061522316	450.7762372027246	774.1032181741815	2223.400618739179	561.0464931404799	734.8836696664014	2162.669943716568	531.6231470079533	762.6987840923407	2174.807669989945	658.3052728860214	732.2490745129012	2116.765803919142	631.1255152751277	760.3993756332143	2205.546937980706	898.0986307775962	1019.914255634176	2016.49109421082	76.79275539717679	926.7940369051942	1830.947957648725	56.67607379453963	888.2354770315854	1853.127362403328	76.33831353985265	932.4437218798639	1847.750461091963	98.66645714512755	887.9451310156815	2151.51430224269	960.1445385721714	1062.855367275049	2043.665514400509	40.68840321729495	888.0448388588819	1992.730955878456	38.19270228513722	991.3408903750727	2046.491358504669	960.3395565900831	965.576396471188	1968.325210163598	182.1873850307714	963.512251930264	1933.174057269495	211.4205932234614	939.9915903098902	2008.011792515593	252.7153264527674	988.165038159526	1970.846532042482	279.9800537537777	961.187897085644	2134.471690705497	525.994301831165	1037.862254726879	2071.879109054484	523.0956003848172	1003.091161809118	2113.637696708995	631.2466933531639	1065.828897593025	2052.519763875185	627.1969762112849	1034.346690959455	
